<svg xmlns="http://www.w3.org/2000/svg" height="40" viewBox="0 96 960 960" width="40"><path fill="#FFFFFF" d="m235.696 982.971 53.985-123.203q-15.246-10.347-27.92-20.949-12.674-10.601-25.442-23.181-8.189 3.667-17.587 5.5-9.399 1.833-17.732 1.833-35.348 0-60.16-24.811-24.811-24.812-24.811-60.16 0-21.319 9.543-39.804 9.544-18.486 25.007-28.616-6.014-23.015-9.681-46.384-3.666-23.37-3.666-47.863 0-24.782 3.333-48.007 3.333-23.224 10.014-46.239-15.463-11.087-25.007-29.188-9.543-18.102-9.543-39.232 0-35.914 24.811-60.443 24.812-24.529 60.16-24.529 9.087 0 17.775 1.834 8.689 1.833 16.877 5.5 33.203-33.363 73.058-56.42 39.855-23.058 87.217-35.725 5.189-33.406 29.095-53.631 23.905-20.224 55.311-20.224 31.971 0 55.928 20.442 23.957 20.442 28.855 53.413 46.986 12.667 88.609 33.609 41.623 20.941 74.159 55.869 7.899-2.71 15.558-4.022 7.66-1.311 15.558-1.311 35.913 0 60.442 24.529 24.529 24.529 24.529 60.442 0 22.464-9.377 39.71-9.376 17.247-24.507 28.044 6.681 24.203 10.015 47.217 3.333 23.015 3.333 48.362 0 24.493-3.333 47.58-3.334 23.087-10.015 46.101 17.131 11.754 25.507 30.711 8.377 18.956 8.377 38.275 0 35.348-24.529 60.16-24.529 24.811-60.442 24.811-8.565 0-17.609-1.833-9.043-1.833-16.377-5.5-12.101 12.768-25.224 23.754-13.123 10.985-27.66 21.043l53.218 122.536h-62.666l-42.363-93.869q-14.116 5.434-27.507 9.891-13.392 4.456-27.696 8.79-5.942 33.551-29.377 53.703t-55.406 20.152q-31.406 0-55.123-19.986-23.717-19.985-29.283-53.869-14.826-4.334-28.717-8.79-13.891-4.457-25.63-10.558l-43.885 94.536h-61.999ZM315.45 799.58 381 654.666Q367 638 359.667 618.333q-7.333-19.666-7.333-42.333 0-52.333 38.833-90.166Q430 448 482.333 448q52.334 0 89.167 37.834 36.833 37.833 36.833 90.166 0 22.667-7.167 42.667Q594 638.666 579 655.333l65.55 145q8.827-6.681 18.479-14.05 9.652-7.37 17.666-16.196-2.246-7.232-4.456-15.116-2.21-7.884-2.21-16.971 0-31.681 20.087-55.616t53.782-29.355q5.537-18.493 8.776-37.87 3.239-19.376 3.239-39.826 0-21.116-3.239-40.775t-8.109-38.152q-32.362-4.087-53.449-28.305-21.087-24.217-21.087-56.101 0-9 1.268-16.783 1.268-7.782 4.268-16.347-28.551-27.319-60.348-45.435-31.797-18.116-70.55-29.029-10.131 14.899-27.834 24.732t-40.5 9.833q-22.797 0-40.166-9.833-17.37-9.833-28.167-24.732-38.667 10.913-71.652 29.29t-59.913 47.174q3.667 8.565 4.601 16.014.935 7.449.935 15.783 0 34.261-21.42 57.123-21.42 22.862-51.783 27.283-5.536 18.492-8.775 37.818-3.239 19.326-3.239 40.442 0 20.45 3.239 40.109 3.239 19.659 8.775 37.775 33.696 6.363 53.45 30.109 19.753 23.747 19.753 54.674 0 9-1.5 16.594-1.5 7.594-3.369 14.16 8.014 8.826 16.623 15.963 8.609 7.138 17.725 14.863Zm49.999 30.086q10.348 4.247 22.058 8.87 11.71 4.623 24.493 7.348 12.13-15.565 28.833-24.877 16.703-9.312 39.5-9.312t40.5 9.312q17.703 9.312 27.834 24.877 13.072-2.725 24.253-7.015 11.182-4.29 20.297-8.536L533 690.666q-12 7-25.667 10.167Q493.667 704 479.667 704q-14.334 0-28.167-3.667-13.833-3.667-25.833-11l-60.218 140.333Zm114.884-192.333q25.334 0 43.334-17.666 18-17.667 18-43.667 0-25.333-18-43.333t-43.334-18q-26 0-43.666 18Q419 550.667 419 576q0 26 17.667 43.667 17.666 17.666 43.666 17.666Zm0-61.333Z"/></svg>