<svg xmlns="http://www.w3.org/2000/svg" height="40" viewBox="0 96 960 960" width="40"><path fill="#FFFFFF" d="M185.84 873.175q-46.088-53.652-71.037-118.428Q89.853 689.971 89.853 616q0-156.971 107.827-269.74 107.826-112.768 266.493-119.174 6.768 0 13.776.333 7.007.333 11.877 1l-73.45-73.45 51.754-52.13 175.073 175.073L468.13 453.551l-52.188-52.189 82.899-82.899q-7.624-1.333-17.863-2t-15.486-.667q-122.754 5.088-204.935 92.588T178.376 616q0 49.116 16.551 100.848 16.55 51.732 54.217 93.587l-63.304 62.74Zm252.856-11.101q0-23.363-16.392-47.131-16.391-23.768-35.804-48.87-19.413-25.101-35.616-52.913-16.203-27.811-16.203-58.739 0-60.334 42.775-102.921Q420.232 508.913 480 508.913q60.333 0 102.826 42.587 42.493 42.587 42.493 102.921 0 30.928-16.203 58.739-16.203 27.812-35.616 52.913-19.413 25.102-35.616 48.87-16.203 23.768-16.203 47.131h-82.985Zm-1.334 100.869v-57.666h85.653v57.666h-85.653Zm336.798-89.768-62.261-62.073q31.884-38.449 50.993-88T782.001 616q0-59.217-22.507-113.289-22.507-54.073-67.449-96.551l63.971-63.595q52.536 51.508 83.333 121.348Q870.146 533.754 870.146 616q0 75.29-25.043 139.406-25.044 64.117-70.943 117.769Z"/></svg>